HIERARCHY
ROOT Hips
{
	OFFSET 0.000000 0.000000 0.000000
	CHANNELS 6 Xposition Yposition Zposition Xrotation Yrotation Zrotation
	JOINT Spine1
	{
		OFFSET 0.000000 6.248132 0.000005
		CHANNELS 6 Xposition Yposition Zposition Xrotation Yrotation Zrotation
		JOINT Neck
		{
			OFFSET 0.000000 4.981230 0.000005
			CHANNELS 6 Xposition Yposition Zposition Xrotation Yrotation Zrotation
			JOINT Head
			{
				OFFSET 0.000000 3.167280 0.408682
				CHANNELS 6 Xposition Yposition Zposition Xrotation Yrotation Zrotation
				End Site
				{
					OFFSET 0.000000 4.086802 0.000001
				}
			}
		}
		JOINT LeftShoulder
		{
			OFFSET 0.822976 4.022078 -0.108025
			CHANNELS 6 Xposition Yposition Zposition Xrotation Yrotation Zrotation
			JOINT LeftArm
			{
				OFFSET 2.936610 0.000000 0.000000
				CHANNELS 6 Xposition Yposition Zposition Xrotation Yrotation Zrotation
				JOINT LeftForeArm
				{
					OFFSET 5.758224 0.000000 0.000000
					CHANNELS 6 Xposition Yposition Zposition Xrotation Yrotation Zrotation
					JOINT LeftHand
					{
						OFFSET 5.351510 0.000000 0.000000
						CHANNELS 6 Xposition Yposition Zposition Xrotation Yrotation Zrotation
						End Site
						{
							OFFSET 3.065100 0.000000 0.000000
						}
					}
				}
			}
		}
		JOINT RightShoulder
		{
			OFFSET -0.811624 4.022078 -0.108025
			CHANNELS 6 Xposition Yposition Zposition Xrotation Yrotation Zrotation
			JOINT RightArm
			{
				OFFSET -2.936610 0.000000 0.000000
				CHANNELS 6 Xposition Yposition Zposition Xrotation Yrotation Zrotation
				JOINT RightForeArm
				{
					OFFSET -5.758223 0.000000 0.000000
					CHANNELS 6 Xposition Yposition Zposition Xrotation Yrotation Zrotation
					JOINT RightHand
					{
						OFFSET -5.351514 0.000000 0.000000
						CHANNELS 6 Xposition Yposition Zposition Xrotation Yrotation Zrotation
						End Site
						{
							OFFSET -3.065101 0.000000 0.000000
						}
					}
				}
			}
		}
	}
	JOINT LeftUpLeg
	{
		OFFSET 2.043406 0.000000 0.000000
		CHANNELS 6 Xposition Yposition Zposition Xrotation Yrotation Zrotation
		JOINT LeftLeg
		{
			OFFSET 0.000000 -8.593854 -0.000005
			CHANNELS 6 Xposition Yposition Zposition Xrotation Yrotation Zrotation
			JOINT LeftFoot
			{
				OFFSET 0.000000 -9.009677 -0.000005
				CHANNELS 6 Xposition Yposition Zposition Xrotation Yrotation Zrotation
				JOINT LeftToeBase
				{
					OFFSET 0.000000 -1.328215 3.065106
					CHANNELS 6 Xposition Yposition Zposition Xrotation Yrotation Zrotation
					End Site
					{
						OFFSET 0.000000 0.000000 0.817362
					}
				}
			}
		}
	}
	JOINT RightUpLeg
	{
		OFFSET -2.043406 0.000000 0.000000
		CHANNELS 6 Xposition Yposition Zposition Xrotation Yrotation Zrotation
		JOINT RightLeg
		{
			OFFSET 0.000000 -8.593854 -0.000005
			CHANNELS 6 Xposition Yposition Zposition Xrotation Yrotation Zrotation
			JOINT RightFoot
			{
				OFFSET 0.000000 -9.009677 -0.000005
				CHANNELS 6 Xposition Yposition Zposition Xrotation Yrotation Zrotation
				JOINT RightToeBase
				{
					OFFSET 0.000000 -1.328215 3.065106
					CHANNELS 6 Xposition Yposition Zposition Xrotation Yrotation Zrotation
					End Site
					{
						OFFSET 0.000000 0.000000 0.817362
					}
				}
			}
		}
	}
}
MOTION
Frames: 9
Frame Time: 0.016667
2.557192 16.801369 -0.353117 10.478289 -4.024164 4.636980 -0.000000 6.248127 0.000003 -5.600201 4.070270 4.271742 0.000001 4.981227 0.000003 6.589933 -3.864262 -0.869572 0.000001 3.167286 0.408681 17.970467 -3.810410 8.455048 0.822975 4.022070 -0.108025 -7.751454 -0.110468 18.311093 2.936612 -0.000003 -0.000000 7.711891 -19.596156 -18.710340 5.758221 0.000005 -0.000003 4.489580 -42.297186 35.291232 5.351515 -0.000002 0.000001 -10.469754 3.386136 30.698620 -0.811619 4.022077 -0.108025 -5.828797 2.667380 -13.301136 -2.936611 -0.000004 0.000001 -1.110632 58.231980 55.569743 -5.758231 -0.000002 -0.000002 163.751818 66.368204 -198.697197 -5.351512 -0.000003 -0.000009 -44.640211 -1.912943 -7.957264 2.043406 -0.000007 0.000000 -31.002078 19.389109 21.362019 -0.000000 -8.593847 -0.000002 39.157792 9.360704 -15.349655 -0.000003 -9.009677 -0.000005 -8.131336 18.014359 -0.778803 -0.000000 -1.328215 3.065105 0.000001 -0.000009 -0.000003 -2.043404 -0.000005 0.000000 -21.570866 7.504578 -35.520747 0.000005 -8.593851 -0.000003 32.840455 -22.951848 30.996280 0.000002 -9.009684 -0.000005 1.369879 -27.980140 8.770348 -0.000000 -1.328214 3.065106 -0.000004 -0.000002 -0.000002 
2.553792 16.802507 -0.359065 10.416866 -3.971869 4.579272 0.000000 6.248127 0.000005 -5.464857 4.255166 4.223312 -0.000000 4.981227 0.000005 6.704367 -4.266883 -0.841513 0.000000 3.167284 0.408682 18.579503 -4.156543 9.072702 0.822974 4.022075 -0.108026 -7.732461 -0.214799 18.180915 2.936616 0.000004 -0.000000 7.745930 -20.013793 -18.839403 5.758220 -0.000002 0.000001 5.372069 -42.842850 36.404007 5.351506 0.000009 -0.000001 -10.205099 3.125044 31.313443 -0.811620 4.022076 -0.108025 -5.802156 2.783864 -13.172302 -2.936610 -0.000012 0.000000 -0.206659 59.762591 55.044979 -5.758225 0.000001 -0.000003 165.538896 66.306090 -200.673567 -5.351514 -0.000006 -0.000000 -45.727912 -0.830886 -8.866199 2.043406 -0.000005 -0.000000 -30.984818 19.323346 21.388695 0.000000 -8.593847 -0.000005 39.149340 9.331348 -15.327593 -0.000002 -9.009677 -0.000005 -8.115139 18.033544 -0.809932 0.000000 -1.328212 3.065106 -0.000005 -0.000007 0.000000 -2.043406 -0.000004 -0.000000 -20.848625 8.161568 -35.589438 0.000001 -8.593851 -0.000005 32.766320 -23.630163 31.596585 0.000002 -9.009677 -0.000005 1.352599 -28.166889 8.654550 -0.000000 -1.328214 3.065103 -0.000003 -0.000001 -0.000000 
2.549794 16.803732 -0.367145 10.371227 -3.907623 4.495781 0.000000 6.248137 0.000005 -5.295449 4.396231 4.174636 -0.000000 4.981232 0.000003 6.770113 -4.661982 -0.817643 0.000000 3.167291 0.408683 19.156787 -4.492131 9.677539 0.822973 4.022075 -0.108025 -7.770186 -0.282456 18.093962 2.936609 0.000006 -0.000000 7.844660 -20.417659 -19.006052 5.758219 -0.000002 0.000000 6.396291 -43.327237 37.716585 5.351505 0.000007 -0.000001 -9.910265 3.010441 31.687956 -0.811622 4.022079 -0.108026 -5.828914 2.938189 -13.079163 -2.936611 -0.000001 0.000001 0.866079 60.803300 54.538900 -5.758228 -0.000002 -0.000003 169.168090 65.613475 -203.886734 -5.351514 -0.000004 -0.000004 -47.292298 -1.965668 -7.403687 2.043404 -0.000001 -0.000000 -31.010681 19.243003 21.439653 0.000001 -8.593848 -0.000002 39.141024 9.242454 -15.296682 -0.000002 -9.009678 -0.000005 -8.110041 18.095553 -0.785500 0.000005 -1.328218 3.065106 0.000001 -0.000009 0.000002 -2.043406 0.000001 -0.000000 -20.814571 8.084784 -35.506530 0.000002 -8.593851 -0.000003 32.766265 -23.690026 31.585780 0.000005 -9.009682 -0.000005 1.383011 -28.137328 8.678327 -0.000000 -1.328215 3.065108 0.000003 -0.000002 0.000002 
2.546416 16.803831 -0.374131 10.307480 -3.833749 4.422096 0.000000 6.248129 0.000005 -5.139533 4.557090 4.119621 0.000000 4.981238 0.000003 6.896054 -5.052611 -0.818263 0.000000 3.167279 0.408681 19.667619 -4.820980 10.354571 0.822974 4.022087 -0.108025 -7.751317 -0.401731 17.989523 2.936610 -0.000002 -0.000000 7.877060 -20.734632 -19.195436 5.758223 -0.000004 0.000001 7.356495 -43.993778 38.973712 5.351506 -0.000006 -0.000000 -9.712172 2.772748 32.149256 -0.811621 4.022085 -0.108026 -5.831351 3.065602 -12.968723 -2.936612 -0.000003 0.000003 2.104816 61.923902 53.724721 -5.758227 0.000004 -0.000000 172.273408 65.064566 -206.668219 -5.351514 -0.000005 -0.000000 -48.625435 -2.172009 -6.869937 2.043406 -0.000003 -0.000000 -31.043346 19.213717 21.483728 -0.000001 -8.593852 -0.000002 39.163868 9.223719 -15.232927 -0.000002 -9.009679 -0.000005 -8.097036 18.045775 -0.795958 0.000001 -1.328213 3.065106 0.000002 -0.000000 0.000003 -2.043404 -0.000001 -0.000000 -21.011217 7.729843 -35.422809 -0.000002 -8.593849 -0.000003 32.814537 -23.482221 31.389231 0.000003 -9.009678 -0.000005 1.418850 -28.021664 8.729283 -0.000000 -1.328215 3.065105 -0.000002 0.000007 -0.000000 
2.544224 16.803810 -0.381391 10.266182 -3.756697 4.352381 -0.000000 6.248129 0.000005 -4.998531 4.701991 4.049866 -0.000001 4.981223 0.000001 6.987181 -5.454806 -0.759223 0.000000 3.167281 0.408681 20.216105 -5.154001 10.909194 0.822974 4.022069 -0.108027 -7.768393 -0.508002 17.883430 2.936613 0.000006 -0.000000 7.869586 -21.025043 -19.411657 5.758220 -0.000010 -0.000001 8.500077 -44.582960 40.328388 5.351503 -0.000002 0.000003 -9.364309 2.545175 32.526857 -0.811622 4.022069 -0.108025 -5.876889 3.237741 -12.890554 -2.936614 -0.000004 0.000005 3.640310 63.224548 52.603969 -5.758226 -0.000001 0.000000 175.755507 64.367703 -209.694621 -5.351522 -0.000000 0.000003 -50.049997 -1.828575 -7.585498 2.043406 -0.000005 0.000000 -31.067901 19.139006 21.516339 -0.000001 -8.593851 -0.000003 39.163068 9.160639 -15.209247 -0.000002 -9.009681 -0.000009 -8.103546 18.073014 -0.773343 0.000000 -1.328216 3.065106 -0.000001 0.000002 0.000002 -2.043406 -0.000005 0.000000 -20.672160 7.971486 -35.433427 0.000004 -8.593853 -0.000003 32.785731 -23.814279 31.676266 0.000005 -9.009680 -0.000005 1.424214 -28.089735 8.696133 -0.000000 -1.328215 3.065109 -0.000001 -0.000006 -0.000002 
2.541728 16.803223 -0.389131 10.245099 -3.676506 4.263342 -0.000000 6.248127 0.000005 -4.826210 4.872453 3.995140 0.000001 4.981234 0.000005 7.080446 -5.899454 -0.623856 0.000000 3.167286 0.408685 20.649810 -5.535099 11.400451 0.822978 4.022086 -0.108025 -7.759330 -0.648719 17.810895 2.936607 0.000004 -0.000000 7.891333 -21.322684 -19.612449 5.758218 0.000002 -0.000000 9.657818 -45.141646 41.814001 5.351508 0.000000 0.000006 -9.119147 2.503217 32.632185 -0.811620 4.022083 -0.108025 -5.895744 3.335290 -12.810878 -2.936610 -0.000004 0.000001 5.950466 64.522796 50.807858 -5.758225 0.000002 0.000002 176.646683 64.256453 -210.931036 -5.351515 -0.000001 -0.000002 -51.026981 -2.444313 -5.575021 2.043404 -0.000002 -0.000000 -31.132515 19.042291 21.577201 -0.000000 -8.593845 -0.000002 39.195300 9.127039 -15.197690 -0.000003 -9.009676 -0.000010 -8.109636 18.069317 -0.756875 0.000000 -1.328215 3.065108 0.000001 -0.000007 0.000003 -2.043404 0.000001 -0.000000 -20.849926 7.642539 -35.363226 0.000002 -8.593851 -0.000003 32.762403 -23.587433 31.539652 0.000005 -9.009682 -0.000005 1.467110 -28.058760 8.744712 -0.000000 -1.328215 3.065105 -0.000003 -0.000006 0.000002 
2.540262 16.802328 -0.396029 10.204756 -3.594822 4.170135 0.000000 6.248128 0.000005 -4.651437 4.998795 3.935098 0.000001 4.981231 0.000005 7.141286 -6.288463 -0.545506 0.000000 3.167273 0.408678 21.140706 -5.851307 11.925595 0.822974 4.022078 -0.108026 -7.774903 -0.795246 17.697946 2.936607 -0.000002 -0.000000 7.956903 -21.536398 -19.821011 5.758223 -0.000002 -0.000001 10.918800 -45.732204 43.430844 5.351502 -0.000005 0.000005 -8.861394 2.428497 32.707706 -0.811621 4.022082 -0.108026 -5.885697 3.538045 -12.739819 -2.936612 0.000000 0.000001 8.392605 65.714691 48.766997 -5.758225 0.000001 -0.000003 178.945328 63.738506 -213.141094 -5.351513 -0.000002 0.000001 -52.323511 -2.649981 -5.014133 2.043404 0.000001 -0.000000 -31.175569 18.952484 21.637910 0.000001 -8.593849 -0.000003 39.222266 9.098772 -15.184105 -0.000003 -9.009679 -0.000005 -8.126189 18.044687 -0.727707 0.000000 -1.328215 3.065109 0.000000 -0.000005 0.000002 -2.043406 -0.000002 -0.000000 -20.780753 7.584936 -35.313963 0.000001 -8.593851 -0.000004 32.769086 -23.663069 31.599071 0.000003 -9.009685 -0.000006 1.511495 -28.079507 8.730426 0.000000 -1.328213 3.065106 -0.000001 0.000001 0.000002 
2.538708 16.801811 -0.403801 10.173121 -3.525178 4.082958 0.000000 6.248130 0.000005 -4.465299 5.151396 3.860592 0.000001 4.981239 0.000005 7.178535 -6.677409 -0.406135 0.000001 3.167281 0.408685 21.605046 -6.164763 12.402304 0.822975 4.022086 -0.108026 -7.786792 -0.908252 17.600872 2.936610 -0.000010 0.000000 7.976164 -21.786113 -20.056722 5.758221 -0.000002 0.000001 12.281126 -46.206247 45.161252 5.351506 -0.000003 0.000002 -8.521575 2.318939 32.837890 -0.811623 4.022082 -0.108026 -5.815244 3.656573 -12.678681 -2.936610 0.000000 0.000003 11.311211 67.025527 46.171416 -5.758227 -0.000001 -0.000002 181.161383 63.211775 -215.387242 -5.351519 0.000001 -0.000000 -53.760088 -2.877970 -4.515981 2.043406 0.000002 0.000000 -31.236026 18.891245 21.701439 -0.000002 -8.593855 -0.000002 39.256912 9.097726 -15.157846 -0.000003 -9.009680 -0.000005 -8.131585 17.987230 -0.701567 -0.000000 -1.328212 3.065105 -0.000004 0.000000 0.000002 -2.043404 -0.000001 0.000000 -20.711369 7.560918 -35.265288 -0.000001 -8.593848 -0.000003 32.772446 -23.726165 31.655318 0.000005 -9.009680 -0.000005 1.528764 -28.082401 8.808727 -0.000000 -1.328215 3.065106 -0.000000 -0.000009 0.000002 
2.538202 16.800674 -0.410761 10.144646 -3.469884 4.014025 0.000000 6.248132 0.000005 -4.270650 5.321876 3.767822 0.000000 4.981231 0.000005 7.212313 -7.053142 -0.296529 0.000000 3.167285 0.408688 22.036675 -6.462613 12.937453 0.822975 4.022076 -0.108025 -7.814408 -1.024400 17.510810 2.936616 -0.000008 0.000000 8.145481 -22.115328 -20.224460 5.758223 0.000001 -0.000001 13.477459 -46.683001 46.880940 5.351507 -0.000007 0.000006 -8.405746 2.325066 33.002760 -0.811622 4.022077 -0.108025 -5.768648 3.861689 -12.629580 -2.936612 -0.000000 0.000004 14.576155 68.054099 43.264874 -5.758234 0.000002 -0.000003 183.361360 62.711115 -217.487758 -5.351519 -0.000003 -0.000002 -54.958229 -3.180570 -3.365727 2.043406 0.000003 -0.000000 -31.238014 18.743333 21.760310 0.000002 -8.593852 -0.000003 39.278505 9.039893 -15.247462 -0.000001 -9.009681 -0.000007 -8.159403 18.057132 -0.647895 0.000000 -1.328215 3.065106 0.000003 -0.000003 0.000004 -2.043404 -0.000003 -0.000000 -20.663725 7.528851 -35.237974 -0.000002 -8.593853 -0.000005 32.788467 -23.793418 31.714921 0.000003 -9.009678 -0.000005 1.596161 -28.076230 8.768930 -0.000000 -1.328215 3.065104 -0.000003 -0.000003 -0.000002 
